<!DOCTYPE svg PUBLIC "-//W3C//DTD SVG 20010904//EN" "http://www.w3.org/TR/2001/REC-SVG-20010904/DTD/svg10.dtd">
<svg version="1.0" xmlns="http://www.w3.org/2000/svg" width="48px" height="48px" viewBox="0 0 16000 16000" preserveAspectRatio="xMidYMid meet">
<g id="layer101" fill="#048c45" stroke="none">
 <path d="M12861 10790 c-811 -450 -1478 -823 -1483 -828 -6 -6 62 -45 184 -105 189 -93 660 -357 968 -542 85 -51 450 -261 810 -468 667 -381 1026 -589 1115 -645 27 -17 53 -28 57 -26 4 3 8 682 8 1508 l0 1504 -30 98 c-17 55 -36 112 -43 129 -27 66 -93 189 -102 192 -5 1 -673 -366 -1484 -817z"/>
 </g>
<g id="layer102" fill="#043e97" stroke="none">
 <path d="M1763 11588 c-37 -39 -101 -170 -122 -248 -11 -41 -32 -127 -47 -190 l-27 -115 -1 -1434 c-1 -962 2 -1435 9 -1438 14 -4 194 96 322 180 57 37 165 100 240 141 76 41 179 99 229 129 50 31 182 106 295 168 112 61 251 142 309 179 58 37 195 116 305 175 110 59 233 129 273 156 40 27 87 55 105 62 39 17 400 227 592 346 77 48 178 103 225 124 117 52 173 82 177 94 2 5 -63 46 -144 90 -183 100 -579 326 -1364 781 -1036 599 -1259 733 -1330 798 l-25 24 -21 -22z"/>
 </g>
<g id="layer103" fill="#027672" stroke="none">
 <path d="M11407 13613 c-7 -11 -1 -3632 6 -3639 6 -6 2903 1599 2926 1621 11 11 8 22 -19 70 -125 219 -371 463 -652 648 -195 128 -583 360 -783 468 -44 23 -162 91 -263 151 -101 59 -185 108 -187 108 -2 0 -26 13 -52 28 -26 16 -156 88 -288 162 -132 73 -250 142 -263 154 -13 12 -25 19 -26 16 -1 -3 -87 45 -191 105 -213 125 -202 119 -208 108z"/>
 </g>
<g id="layer104" fill="#e50213" stroke="none">
 <path d="M7266 7595 c-417 -238 -763 -439 -770 -445 -16 -16 12 -37 168 -122 72 -40 159 -89 194 -110 34 -21 62 -35 62 -32 0 3 17 -8 37 -23 20 -15 38 -27 40 -25 2 1 13 -4 26 -12 39 -24 210 -122 272 -156 33 -18 125 -70 205 -115 303 -172 407 -231 463 -260 97 -50 90 -123 85 863 -3 499 -8 856 -14 861 -5 5 -334 -177 -768 -424z"/>
 <path d="M7852 4084 c-57 -36 -300 -178 -540 -316 -1750 -1005 -2253 -1301 -2336 -1378 l-39 -36 104 -58 c57 -31 111 -61 119 -66 124 -76 279 -167 425 -250 99 -56 290 -167 425 -245 380 -221 733 -425 990 -572 255 -146 336 -194 390 -229 38 -25 225 -88 309 -104 29 -5 56 -12 59 -14 8 -5 163 -19 205 -19 42 0 48 12 37 73 -22 124 -32 831 -28 2034 2 821 0 1240 -7 1242 -5 1 -56 -27 -113 -62z"/>
 </g>
<g id="layer105" fill="#5f1986" stroke="none">
 <path d="M4705 9962 c-15 -14 -139 -76 -235 -119 -47 -21 -148 -76 -225 -124 -192 -119 -553 -329 -592 -346 -18 -7 -65 -35 -105 -62 -40 -27 -163 -97 -273 -156 -110 -59 -247 -138 -305 -175 -58 -37 -197 -118 -309 -179 -113 -62 -245 -137 -295 -168 -50 -30 -153 -88 -229 -129 -75 -41 -183 -104 -239 -140 -56 -36 -147 -91 -202 -122 -162 -89 -147 -74 -144 -145 l3 -62 40 -6 c92 -13 306 -130 1455 -799 300 -174 743 -431 985 -570 242 -139 490 -284 552 -323 107 -66 112 -71 115 -106 2 -20 8 -36 13 -36 23 0 32 3764 10 3772 -6 2 -15 -1 -20 -5z"/>
 <path d="M6496 8912 c-7 -11 -9 -1763 -2 -1770 3 -2 44 18 93 46 552 313 1386 789 1416 808 21 14 35 29 32 34 -3 4 -24 19 -48 32 -202 115 -1430 823 -1464 845 -12 8 -24 10 -27 5z"/>
 </g>
<g id="layer106" fill="#0368b7" stroke="none">
 <path d="M4633 13566 c-23 -13 -61 -37 -85 -54 -24 -16 -65 -39 -91 -50 -27 -12 -69 -40 -95 -63 -57 -50 -181 -124 -294 -176 -210 -96 -527 -279 -581 -335 -27 -27 -86 -62 -195 -115 -87 -42 -209 -110 -272 -151 -179 -116 -227 -145 -376 -221 -108 -56 -177 -101 -313 -206 -96 -74 -200 -158 -233 -186 -70 -61 -171 -180 -261 -309 l-67 -94 23 -24 c58 -63 276 -195 1342 -812 957 -554 1341 -772 1463 -834 l53 -27 30 22 30 21 -4 92 c-2 50 -10 127 -16 171 -9 60 -11 492 -9 1722 2 903 1 1644 -2 1647 -3 3 -24 -6 -47 -18z"/>
 </g>
<g id="layer107" fill="#0195a4" stroke="none">
 <path d="M11135 13730 c-3 -5 17 -21 45 -35 27 -14 50 -22 50 -19 0 4 7 1 15 -6 8 -7 15 -9 15 -5 0 4 7 2 15 -5 8 -6 19 -9 24 -6 5 4 12 2 16 -4 4 -6 9 -8 13 -6 4 2 15 -2 25 -9 23 -17 78 17 -478 -295 -247 -140 -612 -345 -809 -458 -198 -112 -425 -240 -505 -284 -80 -45 -353 -199 -606 -343 -741 -422 -756 -430 -792 -402 -7 5 -17 6 -23 2 -14 -9 -1 -28 14 -22 7 3 45 -17 84 -44 40 -27 75 -49 79 -49 13 0 188 -102 211 -124 13 -11 24 -19 25 -16 2 5 75 -35 447 -248 503 -289 759 -437 847 -493 51 -32 137 -81 190 -110 355 -188 568 -318 1233 -747 41 -27 80 -52 87 -56 7 -4 23 0 36 9 l24 15 8 576 c4 316 4 1137 0 1824 l-8 1250 -25 16 c-13 9 -32 18 -41 19 -9 2 -17 4 -18 5 -2 2 -7 4 -13 5 -5 1 -13 4 -17 5 -5 2 -12 4 -18 5 -5 2 -13 4 -17 5 -5 1 -11 3 -15 4 -5 1 -31 14 -60 29 -29 15 -54 23 -58 17z"/>
 <path d="M8042 9857 c-14 -16 -18 -1830 -5 -1834 16 -4 1548 923 1548 937 0 18 -52 53 -272 183 -327 193 -418 245 -548 312 -160 83 -290 160 -316 188 -10 11 -19 18 -19 15 0 -5 -188 101 -332 187 -18 11 -36 21 -39 23 -3 1 -11 -3 -17 -11z"/>
 </g>
<g id="layer108" fill="#be2076" stroke="none">
 <path d="M1559 8043 c-4 -29 2 -2901 6 -2953 5 -57 16 -136 31 -234 27 -171 219 -515 398 -714 163 -182 168 -185 806 -552 140 -81 359 -207 485 -280 127 -73 390 -225 585 -338 195 -113 451 -261 569 -329 117 -68 217 -123 222 -121 4 2 10 566 13 1253 7 1557 21 2372 42 2406 13 21 4 82 -14 100 -30 28 -216 140 -667 399 -242 139 -685 396 -985 570 -1176 684 -1387 800 -1459 800 -17 0 -32 -3 -32 -7z"/>
 </g>
<g id="layer109" fill="#ea5408" stroke="none">
 <path d="M7992 4173 l-32 -28 -6 -1225 c-7 -1482 5 -2073 44 -2112 12 -12 232 8 362 33 215 41 278 62 460 153 225 113 636 365 738 453 20 16 38 44 44 68 7 27 12 327 15 906 4 711 2 867 -9 876 -12 10 -155 92 -1196 689 -205 118 -376 214 -380 214 -4 0 -22 -12 -40 -27z"/>
 </g>
<g id="layer110" fill="#74a82e" stroke="none">
 <path d="M11379 9953 c-1 -5 -1 -735 0 -1623 1 -1585 6 -1976 22 -1985 4 -3 707 390 1561 874 l1553 880 3 40 c3 39 2 42 -55 78 -86 55 -391 232 -1123 650 -360 207 -725 417 -810 468 -299 179 -777 447 -956 536 -184 91 -193 95 -195 82z"/>
 <path d="M8858 8531 c-921 -554 -834 -499 -817 -516 8 -7 354 -207 769 -445 565 -323 759 -429 770 -422 13 8 15 122 18 908 1 494 -1 901 -5 905 -5 3 -335 -190 -735 -430z"/>
 </g>
<g id="layer111" fill="#027fcc" stroke="none">
 <path d="M4790 13642 c-19 -2 -53 -16 -75 -31 l-40 -27 -6 -314 c-11 -540 -9 -2978 2 -3055 6 -38 13 -113 15 -165 3 -52 10 -99 14 -104 5 -5 32 14 62 42 29 27 82 64 117 81 36 17 74 39 85 49 12 11 55 38 96 62 41 23 137 78 212 121 75 44 142 79 147 79 23 0 188 106 227 147 40 41 111 82 143 83 28 0 187 100 214 134 33 43 66 61 127 70 50 8 172 70 297 153 46 30 140 85 210 122 256 135 390 216 468 283 86 73 137 102 211 118 25 6 87 34 138 64 50 29 158 90 239 136 81 45 152 91 158 102 6 12 17 17 28 13 9 -3 25 1 35 8 16 12 -8 28 -216 144 -209 117 -705 404 -1511 872 -154 89 -484 279 -735 423 -482 275 -562 323 -602 366 -20 21 -33 26 -60 24z"/>
 <path d="M7965 9813 c-33 -20 -118 -70 -190 -113 -71 -42 -215 -127 -320 -190 -104 -62 -332 -196 -505 -298 -469 -275 -455 -266 -455 -288 0 -14 63 -55 265 -172 146 -83 382 -220 525 -302 797 -462 739 -430 753 -412 16 21 13 1804 -3 1808 -5 2 -37 -13 -70 -33z"/>
 </g>
<g id="layer112" fill="#04a7b2" stroke="none">
 <path d="M8027 15284 c-4 -4 -7 -774 -7 -1710 0 -1624 1 -1704 18 -1713 10 -5 38 -12 62 -16 25 -3 61 -11 80 -16 41 -12 34 -16 775 406 253 144 526 298 606 343 80 44 307 172 505 284 197 113 562 318 809 457 248 140 468 265 489 279 37 23 38 25 21 38 -10 8 -55 25 -100 39 -53 16 -121 48 -191 92 -229 140 -546 325 -1029 601 -275 157 -594 341 -710 410 -286 170 -466 273 -551 315 -58 29 -356 129 -425 142 -10 2 -26 8 -36 13 -36 20 -302 50 -316 36z"/>
 </g>
<g id="layer113" fill="#556f9f" stroke="none">
 </g>
<g id="layer114" fill="#8ec31e" stroke="none">
 <path d="M12945 7230 l-1550 -878 -6 -64 c-7 -66 -4 -82 12 -72 11 7 136 -60 234 -126 39 -26 124 -78 190 -115 219 -123 279 -158 385 -225 58 -37 188 -113 290 -170 102 -57 289 -164 415 -239 348 -204 517 -301 527 -301 4 0 45 -24 91 -54 45 -29 150 -93 234 -142 83 -49 247 -145 363 -213 164 -96 213 -121 224 -112 25 21 96 212 136 366 5 22 10 59 10 82 0 23 4 44 9 47 13 8 9 3088 -4 3092 -5 2 -707 -392 -1560 -876z"/>
 </g>
<g id="layer115" fill="#ddae16" stroke="none">
 </g>
<g id="layer116" fill="#e13d8e" stroke="none">
 <path d="M4700 6185 c-27 -32 -44 -1096 -45 -2699 l0 -969 147 -85 147 -84 48 40 c26 22 77 59 113 81 67 42 578 344 640 378 19 11 73 43 120 70 86 51 279 163 445 258 50 29 151 87 225 130 470 271 850 490 935 538 160 89 458 270 514 310 44 33 51 41 40 52 -8 8 -75 46 -149 85 -145 78 -389 214 -588 329 -67 39 -125 71 -128 71 -2 0 -21 11 -42 24 -35 22 -317 186 -412 239 -168 93 -698 402 -760 442 -41 27 -118 70 -170 95 -53 26 -161 87 -240 135 -80 48 -233 139 -340 203 -321 189 -430 267 -461 330 -11 23 -22 42 -24 42 -1 0 -8 -7 -15 -15z"/>
 </g>
<g id="layer117" fill="#f6b106" stroke="none">
 <path d="M8037 8023 c-12 -11 -8 -1741 3 -1748 6 -4 142 69 303 161 161 92 312 178 337 192 47 26 299 169 530 302 74 43 158 90 185 105 117 65 186 107 182 112 -6 6 -400 233 -482 278 -33 18 -127 72 -210 120 -82 48 -175 101 -205 118 -30 17 -156 89 -280 160 -124 71 -250 143 -280 160 -30 16 -60 34 -66 38 -6 5 -14 6 -17 2z"/>
 <path d="M11395 6230 c-3 -5 -5 -42 -5 -82 1 -40 1 -512 1 -1048 -1 -536 2 -1321 5 -1743 7 -735 8 -770 26 -793 11 -13 27 -24 36 -24 9 0 71 30 137 66 66 36 125 67 131 68 7 1 18 7 25 13 8 6 129 76 269 156 140 79 377 215 525 302 542 316 928 537 939 539 6 1 22 10 36 20 53 38 230 144 230 138 0 -4 6 0 13 8 14 17 118 95 128 95 17 0 253 251 305 325 93 131 158 240 148 250 -8 7 -350 208 -1389 815 -209 122 -420 243 -470 270 -90 49 -167 95 -365 217 -58 36 -161 95 -229 133 -69 37 -177 100 -240 140 -171 106 -248 147 -256 135z"/>
 <path d="M9555 5076 c-11 -7 -92 -54 -180 -104 -88 -49 -223 -125 -300 -169 -174 -99 -535 -302 -595 -336 -25 -14 -85 -48 -133 -76 -49 -28 -90 -51 -92 -51 -2 0 -40 -22 -85 -50 -45 -27 -85 -50 -88 -50 -4 0 -18 -9 -32 -20 -22 -17 -23 -21 -10 -34 8 -8 179 -109 380 -224 201 -115 549 -316 775 -445 225 -129 413 -233 417 -231 7 5 0 1006 -11 1503 -4 185 -10 296 -16 298 -6 2 -19 -3 -30 -11z"/>
 </g>
<g id="layer118" fill="#1bb2e9" stroke="none">
 <path d="M7875 15284 c-11 -3 -67 -14 -125 -25 -107 -20 -221 -50 -275 -73 -16 -7 -46 -19 -65 -26 -19 -8 -107 -55 -195 -105 -88 -51 -180 -103 -205 -117 -25 -14 -128 -74 -230 -133 -102 -60 -210 -122 -240 -138 -30 -16 -62 -36 -71 -43 -8 -8 -19 -14 -23 -14 -4 0 -148 -81 -319 -181 -172 -99 -319 -184 -327 -189 -22 -12 -311 -180 -415 -240 -111 -65 -147 -86 -205 -118 -25 -14 -118 -67 -207 -119 -138 -80 -161 -97 -158 -115 11 -54 66 -91 637 -416 251 -144 581 -334 735 -423 778 -453 1291 -748 1497 -864 221 -125 229 -128 260 -116 17 7 36 13 41 15 6 1 20 8 33 14 l22 13 -2 1707 -3 1707 -70 2 c-38 0 -79 -1 -90 -3z"/>
 </g>
<g id="layer119" fill="#5ca9bb" stroke="none">
 </g>

</svg>